<svg width="120" height="40" viewBox="0 0 120 40" fill="none" xmlns="http://www.w3.org/2000/svg">
<rect x="0.5" y="0.5" width="119" height="39" rx="6.5" fill="black" style="fill:black;fill-opacity:1;"/>
<rect x="0.5" y="0.5" width="119" height="39" rx="6.5" stroke="#A6A6A6" style="stroke:#A6A6A6;stroke:color(display-p3 0.6510 0.6510 0.6510);stroke-opacity:1;"/>
<path d="M81.5267 19.2009V21.4919H80.0906V22.9943H81.5267V28.0993C81.5267 29.8425 82.3152 30.5397 84.2991 30.5397C84.6478 30.5397 84.9798 30.4982 85.2703 30.4484V28.9626C85.0213 28.9875 84.8636 29.0041 84.5896 29.0041C83.7015 29.0041 83.3113 28.589 83.3113 27.6428V22.9943H85.2703V21.4919H83.3113V19.2009H81.5267Z" fill="white" style="fill:white;fill-opacity:1;"/>
<path d="M90.3242 30.6642C92.9638 30.6642 94.5825 28.8962 94.5825 25.966C94.5825 23.0524 92.9555 21.2761 90.3242 21.2761C87.6845 21.2761 86.0576 23.0524 86.0576 25.966C86.0576 28.8962 87.6762 30.6642 90.3242 30.6642ZM90.3242 29.0788C88.7719 29.0788 87.9003 27.9416 87.9003 25.966C87.9003 24.007 88.7719 22.8615 90.3242 22.8615C91.8681 22.8615 92.748 24.007 92.748 25.966C92.748 27.9333 91.8681 29.0788 90.3242 29.0788Z" fill="white" style="fill:white;fill-opacity:1;"/>
<path d="M95.9674 30.4899H97.752V25.1525C97.752 23.8825 98.7066 23.0275 100.06 23.0275C100.375 23.0275 100.906 23.0856 101.056 23.1354V21.3757C100.865 21.3259 100.524 21.301 100.259 21.301C99.0802 21.301 98.0758 21.9484 97.8184 22.8366H97.6856V21.4504H95.9674V30.4899Z" fill="white" style="fill:white;fill-opacity:1;"/>
<path d="M105.487 22.7951C106.807 22.7951 107.67 23.7165 107.712 25.1359H103.146C103.246 23.7248 104.167 22.7951 105.487 22.7951ZM107.703 28.0495C107.371 28.7551 106.633 29.1452 105.553 29.1452C104.126 29.1452 103.204 28.1408 103.146 26.5554V26.4557H109.53V25.8332C109.53 22.9943 108.01 21.2761 105.495 21.2761C102.947 21.2761 101.328 23.1105 101.328 25.9992C101.328 28.8879 102.914 30.6642 105.504 30.6642C107.571 30.6642 109.015 29.6681 109.422 28.0495H107.703Z" fill="white" style="fill:white;fill-opacity:1;"/>
<path d="M69.8231 27.1518C69.9607 29.3715 71.8105 30.791 74.5636 30.791C77.506 30.791 79.3472 29.3026 79.3472 26.9281C79.3472 25.0611 78.2975 24.0287 75.7509 23.435L74.3829 23.0995C72.7655 22.7209 72.1116 22.2133 72.1116 21.3272C72.1116 20.2087 73.1268 19.4774 74.6497 19.4774C76.095 19.4774 77.093 20.1915 77.2737 21.3358H79.1493C79.0374 19.2451 77.1963 17.7739 74.6755 17.7739C71.9654 17.7739 70.1586 19.2451 70.1586 21.4562C70.1586 23.2802 71.1824 24.3642 73.4279 24.889L75.0282 25.2762C76.6715 25.6634 77.3942 26.2312 77.3942 27.1776C77.3942 28.2788 76.2585 29.0789 74.7099 29.0789C73.0494 29.0789 71.8965 28.3304 71.7331 27.1518H69.8231Z" fill="white" style="fill:white;fill-opacity:1;"/>
<path d="M51.3357 21.301C50.1072 21.301 49.0447 21.9152 48.4969 22.9445H48.3641V21.4504H46.6458V33.4948H48.4305V29.1203H48.5716C49.0447 30.0749 50.0657 30.6393 51.3523 30.6393C53.6351 30.6393 55.0877 28.8381 55.0877 25.966C55.0877 23.0939 53.6351 21.301 51.3357 21.301ZM50.8294 29.0373C49.3353 29.0373 48.3973 27.8586 48.3973 25.9743C48.3973 24.0817 49.3353 22.903 50.8377 22.903C52.3484 22.903 53.2532 24.0568 53.2532 25.966C53.2532 27.8835 52.3484 29.0373 50.8294 29.0373Z" fill="white" style="fill:white;fill-opacity:1;"/>
<path d="M61.3325 21.301C60.104 21.301 59.0415 21.9152 58.4937 22.9445H58.3609V21.4504H56.6426V33.4948H58.4273V29.1203H58.5684C59.0415 30.0749 60.0625 30.6393 61.3491 30.6393C63.6319 30.6393 65.0845 28.8381 65.0845 25.966C65.0845 23.0939 63.6319 21.301 61.3325 21.301ZM60.8262 29.0373C59.3321 29.0373 58.3941 27.8586 58.3941 25.9743C58.3941 24.0817 59.3321 22.903 60.8345 22.903C62.3452 22.903 63.25 24.0568 63.25 25.966C63.25 27.8835 62.3452 29.0373 60.8262 29.0373Z" fill="white" style="fill:white;fill-opacity:1;"/>
<path d="M43.4438 30.4899H45.4914L41.009 18.075H38.9356L34.4531 30.4899H36.4319L37.5762 27.1948H42.3081L43.4438 30.4899ZM39.8733 20.3292H40.0196L41.8177 25.5773H38.0666L39.8733 20.3292Z" fill="white" style="fill:white;fill-opacity:1;"/>
<path d="M35.6523 8.71069V14.6997H37.8147C39.5994 14.6997 40.6328 13.5999 40.6328 11.6865C40.6328 9.80225 39.5911 8.71069 37.8147 8.71069H35.6523ZM36.582 9.55737H37.7109C38.9519 9.55737 39.6865 10.3459 39.6865 11.699C39.6865 13.0728 38.9644 13.853 37.7109 13.853H36.582V9.55737Z" fill="white" style="fill:white;fill-opacity:1;"/>
<path d="M43.7979 14.7869C45.1177 14.7869 45.9271 13.9028 45.9271 12.4377C45.9271 10.981 45.1136 10.0928 43.7979 10.0928C42.4781 10.0928 41.6646 10.981 41.6646 12.4377C41.6646 13.9028 42.4739 14.7869 43.7979 14.7869ZM43.7979 13.9941C43.0218 13.9941 42.586 13.4255 42.586 12.4377C42.586 11.4583 43.0218 10.8855 43.7979 10.8855C44.5699 10.8855 45.0098 11.4583 45.0098 12.4377C45.0098 13.4214 44.5699 13.9941 43.7979 13.9941Z" fill="white" style="fill:white;fill-opacity:1;"/>
<path d="M52.8192 10.1799H51.9269L51.1217 13.6289H51.0511L50.1214 10.1799H49.2665L48.3368 13.6289H48.2704L47.461 10.1799H46.5562L47.8014 14.6997H48.7186L49.6483 11.3711H49.7188L50.6527 14.6997H51.5782L52.8192 10.1799Z" fill="white" style="fill:white;fill-opacity:1;"/>
<path d="M53.8468 14.6997H54.7392V12.0559C54.7392 11.3503 55.1583 10.9104 55.8183 10.9104C56.4782 10.9104 56.7936 11.2715 56.7936 11.9978V14.6997H57.6859V11.7737C57.6859 10.6987 57.1298 10.0928 56.1212 10.0928C55.4406 10.0928 54.9923 10.3958 54.7724 10.8979H54.706V10.1799H53.8468V14.6997Z" fill="white" style="fill:white;fill-opacity:1;"/>
<path d="M59.0913 14.6997H59.9836V8.41602H59.0913V14.6997Z" fill="white" style="fill:white;fill-opacity:1;"/>
<path d="M63.3396 14.7869C64.6594 14.7869 65.4688 13.9028 65.4688 12.4377C65.4688 10.981 64.6553 10.0928 63.3396 10.0928C62.0198 10.0928 61.2063 10.981 61.2063 12.4377C61.2063 13.9028 62.0156 14.7869 63.3396 14.7869ZM63.3396 13.9941C62.5635 13.9941 62.1277 13.4255 62.1277 12.4377C62.1277 11.4583 62.5635 10.8855 63.3396 10.8855C64.1116 10.8855 64.5515 11.4583 64.5515 12.4377C64.5515 13.4214 64.1116 13.9941 63.3396 13.9941Z" fill="white" style="fill:white;fill-opacity:1;"/>
<path d="M68.1275 14.0232C67.6419 14.0232 67.2891 13.7866 67.2891 13.3799C67.2891 12.9814 67.5713 12.7698 68.1939 12.7283L69.2979 12.6577V13.0354C69.2979 13.5957 68.7999 14.0232 68.1275 14.0232ZM67.8992 14.7744C68.4927 14.7744 68.9866 14.5171 69.2564 14.0647H69.327V14.6997H70.1861V11.6118C70.1861 10.6572 69.5469 10.0928 68.4139 10.0928C67.3887 10.0928 66.6583 10.5908 66.5669 11.3669H67.4302C67.5298 11.0474 67.8743 10.8647 68.3724 10.8647C68.9825 10.8647 69.2979 11.1345 69.2979 11.6118V12.002L68.0735 12.0725C66.9986 12.1389 66.3926 12.6079 66.3926 13.4214C66.3926 14.2473 67.0276 14.7744 67.8992 14.7744Z" fill="white" style="fill:white;fill-opacity:1;"/>
<path d="M73.2142 14.7744C73.8368 14.7744 74.3639 14.4797 74.6336 13.9858H74.7042V14.6997H75.5592V8.41602H74.6668V10.8979H74.6004C74.3556 10.3999 73.8326 10.1052 73.2142 10.1052C72.0728 10.1052 71.3382 11.01 71.3382 12.4377C71.3382 13.8696 72.0645 14.7744 73.2142 14.7744ZM73.4674 10.9062C74.2145 10.9062 74.6834 11.4998 74.6834 12.4419C74.6834 13.3882 74.2186 13.9734 73.4674 13.9734C72.712 13.9734 72.2596 13.3965 72.2596 12.4377C72.2596 11.4873 72.7162 10.9062 73.4674 10.9062Z" fill="white" style="fill:white;fill-opacity:1;"/>
<path d="M81.3457 14.7869C82.6655 14.7869 83.4748 13.9028 83.4748 12.4377C83.4748 10.981 82.6613 10.0928 81.3457 10.0928C80.0258 10.0928 79.2124 10.981 79.2124 12.4377C79.2124 13.9028 80.0217 14.7869 81.3457 14.7869ZM81.3457 13.9941C80.5695 13.9941 80.1337 13.4255 80.1337 12.4377C80.1337 11.4583 80.5695 10.8855 81.3457 10.8855C82.1176 10.8855 82.5576 11.4583 82.5576 12.4377C82.5576 13.4214 82.1176 13.9941 81.3457 13.9941Z" fill="white" style="fill:white;fill-opacity:1;"/>
<path d="M84.656 14.6997H85.5483V12.0559C85.5483 11.3503 85.9675 10.9104 86.6274 10.9104C87.2874 10.9104 87.6028 11.2715 87.6028 11.9978V14.6997H88.4951V11.7737C88.4951 10.6987 87.939 10.0928 86.9304 10.0928C86.2498 10.0928 85.8015 10.3958 85.5815 10.8979H85.5151V10.1799H84.656V14.6997Z" fill="white" style="fill:white;fill-opacity:1;"/>
<path d="M92.6048 9.05518V10.2007H91.8868V10.9519H92.6048V13.5044C92.6048 14.376 92.9991 14.7246 93.9911 14.7246C94.1654 14.7246 94.3314 14.7039 94.4767 14.679V13.936C94.3521 13.9485 94.2733 13.9568 94.1363 13.9568C93.6922 13.9568 93.4972 13.7493 93.4972 13.2761V10.9519H94.4767V10.2007H93.4972V9.05518H92.6048Z" fill="white" style="fill:white;fill-opacity:1;"/>
<path d="M95.6745 14.6997H96.5668V12.0601C96.5668 11.3752 96.9735 10.9146 97.704 10.9146C98.3349 10.9146 98.671 11.2798 98.671 12.002V14.6997H99.5634V11.782C99.5634 10.707 98.9699 10.0969 98.007 10.0969C97.3263 10.0969 96.849 10.3999 96.6291 10.9062H96.5585V8.41602H95.6745V14.6997Z" fill="white" style="fill:white;fill-opacity:1;"/>
<path d="M102.782 10.8523C103.442 10.8523 103.874 11.313 103.895 12.0227H101.612C101.662 11.3171 102.123 10.8523 102.782 10.8523ZM103.891 13.4795C103.725 13.8323 103.355 14.0273 102.816 14.0273C102.102 14.0273 101.641 13.5251 101.612 12.7324V12.6826H104.804V12.3713C104.804 10.9519 104.044 10.0928 102.787 10.0928C101.512 10.0928 100.703 11.01 100.703 12.4543C100.703 13.8987 101.496 14.7869 102.791 14.7869C103.824 14.7869 104.546 14.2888 104.75 13.4795H103.891Z" fill="white" style="fill:white;fill-opacity:1;"/>
<path d="M24.77 20.3011C24.7916 18.6201 25.6944 17.0295 27.1265 16.149C26.2231 14.8587 24.7098 14.0406 23.1354 13.9913C21.4561 13.8151 19.8282 14.9962 18.9725 14.9962C18.1002 14.9962 16.7827 14.0088 15.364 14.038C13.5147 14.0978 11.7907 15.1491 10.891 16.7659C8.95705 20.1143 10.3996 25.0354 12.2522 27.742C13.1791 29.0673 14.2624 30.5478 15.6799 30.4953C17.0669 30.4377 17.585 29.6108 19.2593 29.6108C20.918 29.6108 21.4041 30.4953 22.8503 30.4619C24.3387 30.4377 25.2764 29.1306 26.1708 27.7927C26.8368 26.8484 27.3492 25.8047 27.6892 24.7002C25.9401 23.9604 24.772 22.2002 24.77 20.3011Z" fill="white" style="fill:white;fill-opacity:1;"/>
<path d="M22.0383 12.2113C22.8498 11.2371 23.2496 9.98494 23.1528 8.7207C21.913 8.85092 20.7677 9.44348 19.9452 10.3803C19.141 11.2956 18.7224 12.5258 18.8015 13.7417C20.0418 13.7545 21.2611 13.178 22.0383 12.2113Z" fill="white" style="fill:white;fill-opacity:1;"/>
</svg>
