<svg width="20" height="24" viewBox="0 0 20 24" fill="none" xmlns="http://www.w3.org/2000/svg">
<g clip-path="url(#clip0_19615_4786)">
<path d="M15.2444 1.3418C17.0418 4.45503 17.9881 7.98655 17.9881 11.5814C17.9881 15.1763 17.0418 18.7078 15.2444 21.821M10.739 3.59451C12.141 6.02283 12.879 8.77741 12.879 11.5814C12.879 14.3854 12.141 17.14 10.739 19.5683M6.43833 5.66291C7.45208 7.43745 7.98577 9.45042 7.98577 11.4995C7.98577 13.5485 7.45208 15.5615 6.43833 17.3361M2.1377 7.89514C2.86829 9.00086 3.25563 10.278 3.25563 11.5814C3.25563 12.8848 2.86829 14.1619 2.1377 15.2677" stroke="white" style="stroke:white;stroke-opacity:1;" stroke-width="2.4575" stroke-linecap="round"/>
</g>
<defs>
<clipPath id="clip0_19615_4786">
<rect width="19.1139" height="22.9367" fill="white" style="fill:white;fill-opacity:1;" transform="translate(0.772461 0.113281)"/>
</clipPath>
</defs>
</svg>
