<svg width="24" height="24" viewBox="0 0 24 24" fill="none" xmlns="http://www.w3.org/2000/svg">
<g clip-path="url(#clip0_8573_3920)">
<path d="M23.6328 7.18207C22.9428 5.5171 21.4249 4.44511 19.7539 4.24612C19.5549 2.57514 18.4839 1.05717 16.8179 0.367176C15.153 -0.322813 13.322 -0.00681991 12 1.03416C10.678 -0.00681991 8.84705 -0.322813 7.18207 0.367176C5.5171 1.05717 4.44511 2.57514 4.24612 4.24612C2.57514 4.44511 1.05717 5.5161 0.367176 7.18207C-0.322813 8.84705 -0.00681991 10.678 1.03416 12C-0.00681991 13.322 -0.322813 15.153 0.367176 16.8179C1.05717 18.4829 2.57514 19.5549 4.24612 19.7539C4.44511 21.4249 5.5161 22.9428 7.18207 23.6328C8.84705 24.3228 10.678 24.0068 12 22.9658C13.322 24.0068 15.153 24.3228 16.8179 23.6328C18.4829 22.9428 19.5549 21.4249 19.7539 19.7539C21.4249 19.5549 22.9428 18.4839 23.6328 16.8179C24.3228 15.153 24.0068 13.322 22.9658 12C24.0068 10.678 24.3228 8.84705 23.6328 7.18207ZM21.2949 11.126L20.2289 12.192L17.9619 14.46V16.9989L17.9659 17.0029L21.6549 13.314C22.1938 14.114 22.3358 15.16 21.9389 16.1179C21.4649 17.2629 20.3579 17.9539 19.1909 17.9549H17.6829H14.477L12.682 19.7509V19.7559H17.8989C17.7149 20.7029 17.0749 21.5429 16.1169 21.9389C14.972 22.4128 13.7 22.1188 12.875 21.2939L11.809 20.2279L9.54104 17.9609H7.00208L6.99807 17.9649L10.687 21.6539C9.88703 22.1928 8.84105 22.3348 7.88306 21.9379C6.73808 21.4639 6.04709 20.3569 6.04609 19.1899H6.01809V17.6949V14.477L4.22212 12.682H4.21712V17.8939C3.28113 17.7029 2.45414 17.0659 2.06115 16.1169C1.58716 14.972 1.88115 13.7 2.70614 12.875L3.77212 11.809L6.03809 9.54103V7.00207L6.03409 6.99808L2.34515 10.687C1.80615 9.88703 1.66416 8.84105 2.06115 7.88306C2.53514 6.73808 3.64213 6.04709 4.80911 6.04609H6.31708H9.52303L11.318 4.25012V4.24512H6.10109C6.28509 3.29813 6.92508 2.45814 7.88306 2.06215C9.02805 1.58816 10.3 1.88215 11.125 2.70714L12.191 3.77312L14.459 6.04009H16.9979L17.0019 6.03609L13.313 2.34715C14.113 1.80815 15.1589 1.66616 16.1169 2.06315C17.2619 2.53714 17.9529 3.64412 17.9539 4.81111V6.31909V9.52504L19.7499 11.32H19.7549V6.10309C20.7019 6.28709 21.5419 6.92708 21.9378 7.88506C22.4118 9.03004 22.1178 10.302 21.2929 11.127L21.2949 11.126Z" fill="#004A46" style="fill:#004A46;fill:color(display-p3 0.0000 0.2902 0.2745);fill-opacity:1;"/>
</g>
<defs>
<clipPath id="clip0_8573_3920">
<path d="M0 12C0 8.27247 0 6.4087 0.608964 4.93853C1.42092 2.97831 2.97831 1.42092 4.93853 0.608964C6.4087 0 8.27247 0 12 0C15.7275 0 17.5913 0 19.0615 0.608964C21.0217 1.42092 22.5791 2.97831 23.391 4.93853C24 6.4087 24 8.27247 24 12C24 15.7275 24 17.5913 23.391 19.0615C22.5791 21.0217 21.0217 22.5791 19.0615 23.391C17.5913 24 15.7275 24 12 24C8.27247 24 6.4087 24 4.93853 23.391C2.97831 22.5791 1.42092 21.0217 0.608964 19.0615C0 17.5913 0 15.7275 0 12Z" fill="white" style="fill:white;fill-opacity:1;"/>
</clipPath>
</defs>
</svg>
